<svg width="63" height="64" viewBox="0 0 63 64" fill="none" xmlns="http://www.w3.org/2000/svg">
<g id="Frame" clip-path="url(#clip0_268_804)">
<g id="Group">
<path id="Vector" d="M18.3457 36.8309C18.2665 36.5961 18.1873 36.3614 18.1202 36.1266C18.1033 36.0844 18.089 36.041 18.0776 35.9969C18.0227 35.7992 17.9679 35.6015 17.9253 35.3792C17.9102 35.3284 17.898 35.2769 17.8887 35.2247C17.8278 34.9653 17.7729 34.6996 17.7303 34.434C17.7303 34.3969 17.7303 34.3599 17.7303 34.3228C17.7303 34.1683 17.6876 34.0139 17.6633 33.8595C17.6633 33.81 17.6633 33.7606 17.6633 33.7174C17.6633 33.495 17.6145 33.2664 17.5963 33.0378C17.5963 32.9513 17.5963 32.8587 17.5963 32.766C17.5963 32.5127 17.5963 32.2533 17.5963 31.9938C17.5963 31.617 17.5962 31.2463 17.645 30.8757C17.645 30.8263 17.645 30.7707 17.645 30.7151C17.8638 27.9813 18.8584 25.3702 20.5086 23.1969C20.2799 20.6816 19.7939 18.1972 19.0585 15.7838C16.2558 7.7529 10.5834 7.90117 6.75708 12.2378C2.1078 18.2247 -0.279472 25.6985 0.0255004 33.3122C0.330473 40.9259 3.30764 48.1788 8.42043 53.7637C9.28562 54.4803 11.5826 55.7961 15.2261 53.5598C19.9176 50.6749 20.3197 43.1259 18.9732 38.3382C18.7386 37.8471 18.5291 37.344 18.3457 36.8309Z" fill="url(#paint0_linear_268_804)"/>
<path id="Vector_2" d="M44.6548 27.1629C44.7401 27.3977 44.8132 27.6324 44.8863 27.8734L44.9229 28.0031C44.9777 28.2008 45.0325 28.3985 45.0813 28.6209L45.1178 28.7753C45.1788 29.0409 45.2275 29.3004 45.2763 29.566V29.6772C45.2763 29.8317 45.325 29.9861 45.3433 30.1405V30.2826C45.3433 30.5112 45.392 30.7336 45.4103 30.9622V31.234C45.4103 31.4873 45.4103 31.7467 45.4103 32.0062C45.4103 32.383 45.4103 32.7537 45.3615 33.1243C45.3615 33.1799 45.3615 33.2293 45.3615 33.2849C45.1192 36.0222 44.0991 38.6294 42.4248 40.7907C42.6593 43.3052 43.1452 45.789 43.8749 48.2039C46.6776 56.2348 52.35 56.0865 56.1763 51.7498C60.8346 45.7709 63.2335 38.3016 62.9408 30.688C62.6481 23.0744 59.6831 15.8171 54.58 10.2239C53.7209 9.50734 51.4178 8.1915 47.7804 10.4278C43.0828 13.3127 42.6807 20.8618 44.0272 25.6494C44.2647 26.1414 44.4742 26.6467 44.6548 27.1629Z" fill="url(#paint1_linear_268_804)"/>
<g id="Vector_3" style="mix-blend-mode:screen">
<path d="M63.0002 32C63.0157 23.9219 60.0062 16.1389 54.5799 10.2239C53.7208 9.50734 51.4177 8.1915 47.7803 10.4278C46.003 11.6044 44.7047 13.3924 44.1246 15.4626C44.7559 13.6331 45.9718 12.0698 47.5792 11.0209C51.2349 8.79074 53.5198 10.1004 54.3788 10.8232C58.2726 15.0732 60.9532 20.3168 62.1337 25.9927C63.3143 31.6686 62.9504 37.5632 61.081 43.0456C62.3588 39.5075 63.0086 35.7679 63.0002 32ZM42.5283 41.0378C43.3521 39.9068 44.0051 38.6575 44.4658 37.3313C43.9734 38.5737 43.3086 39.7386 42.4917 40.7907L42.5283 41.0378Z" fill="url(#paint2_linear_268_804)"/>
</g>
<path id="Vector_4" d="M56.9684 50.8788C53.1665 56.0556 46.9274 56.7598 43.9419 48.2286C43.2062 45.7984 42.7203 43.2976 42.4918 40.766C41.8825 35.2062 41.5901 28.2378 41.3342 21.9181C41.0783 15.5984 40.8285 9.87182 40.1948 7.04247C38.7691 0.704248 33.054 0.0617809 31.7501 4.82387e-06H31.4881C26.5259 -0.00276097 21.6332 1.18385 17.2093 3.46307C12.7855 5.74229 8.95561 9.04954 6.03223 13.1151C9.82807 7.93822 16.0732 7.23397 19.0526 15.7653C19.7906 18.1949 20.2766 20.6959 20.5027 23.2278C21.1486 28.7876 21.4106 35.756 21.6604 42.0757C21.9102 48.3954 22.1722 54.122 22.8058 56.9514C24.2255 63.2896 29.9466 63.9321 31.2444 63.9938H31.5125C36.4745 63.9951 41.3666 62.8078 45.7903 60.5287C50.2139 58.2496 54.044 54.9432 56.9684 50.8788Z" fill="url(#paint3_linear_268_804)"/>
<g id="Vector_5" style="mix-blend-mode:screen" opacity="0.6">
<path d="M56.152 51.8734C55.9022 52.207 55.6584 52.5406 55.3964 52.8556C55.9448 52.2378 56.4749 51.5645 56.9684 50.8788C56.7064 51.2309 56.4322 51.5645 56.152 51.8734ZM56.152 51.8734C52.3257 56.0989 46.7324 56.1544 43.9663 48.2162C43.2306 45.786 42.7446 43.2852 42.5162 40.7537C41.9069 35.1938 41.6144 28.2255 41.3585 21.9058C41.1026 15.5861 40.8528 9.85945 40.2192 7.03011C38.7934 0.691885 33.0784 0.0494183 31.7745 -0.0123578H31.5125C26.8571 -0.0139559 22.2594 1.0313 18.0504 3.04811C13.8414 5.06492 10.1259 8.00308 7.17159 11.651C10.1275 8.16229 13.7921 5.36247 17.9144 3.44324C22.0367 1.52401 26.5194 0.530684 31.0555 0.531275H31.3175C32.6214 0.593051 38.3426 1.23552 39.7622 7.57374C40.3715 10.4031 40.6518 16.0803 40.9016 22.4494C41.1514 28.8185 41.4195 35.7498 42.0592 41.2973C42.2912 43.8263 42.7771 46.3247 43.5093 48.7537C46.379 57.0193 52.3378 56.6239 56.1398 51.8857L56.152 51.8734ZM6.03223 13.1151C6.15408 12.9544 6.27593 12.7938 6.40388 12.6394C6.27593 12.8062 6.15408 12.9544 6.03223 13.1151Z" fill="#2FD1C5"/>
</g>
<g id="Vector_6" style="mix-blend-mode:multiply">
<path d="M17.9499 28.5035C18.4304 26.5775 19.302 24.7744 20.5089 23.2093C20.2802 20.694 19.7942 18.2096 19.0588 15.7961C16.2561 7.76526 10.5836 7.91353 6.75732 12.2502C6.75732 12.2193 15.3421 5.1336 17.9499 28.5035Z" fill="#2FD1C5"/>
</g>
</g>
</g>
<defs>
<linearGradient id="paint0_linear_268_804" x1="10.2541" y1="9.28413" x2="10.2541" y2="54.8055" gradientUnits="userSpaceOnUse">
<stop stop-color="#2FD1C5"/>
<stop offset="1" stop-color="#80E3DC"/>
</linearGradient>
<linearGradient id="paint1_linear_268_804" x1="52.6948" y1="9.18219" x2="52.6948" y2="54.7035" gradientUnits="userSpaceOnUse">
<stop stop-color="#2FD1C5"/>
<stop offset="1" stop-color="#80E3DC"/>
</linearGradient>
<linearGradient id="paint2_linear_268_804" x1="52.746" y1="9.18219" x2="52.746" y2="43.0456" gradientUnits="userSpaceOnUse">
<stop stop-color="#2FD1C5"/>
<stop offset="1" stop-color="#80E3DC"/>
</linearGradient>
<linearGradient id="paint3_linear_268_804" x1="14.6232" y1="7.10424" x2="51.2227" y2="56.6615" gradientUnits="userSpaceOnUse">
<stop stop-color="#00698C"/>
<stop offset="1" stop-color="#0098CB"/>
</linearGradient>
<clipPath id="clip0_268_804">
<rect width="63" height="64" fill="white"/>
</clipPath>
</defs>
</svg>
